<svg xmlns="http://www.w3.org/2000/svg" version="1.1" xmlns:xlink="http://www.w3.org/1999/xlink" xmlns:svgjs="http://svgjs.com/svgjs" width="1920" height="1080" preserveAspectRatio="none" viewBox="0 0 1920 1080"><g mask="url(&quot;#SvgjsMask1071&quot;)" fill="none"><rect width="1920" height="1080" x="0" y="0" fill="rgba(237, 237, 237, 1)"></rect><path d="M0,799.846C145.801,771.786,261.353,679.011,395.571,615.52C554.054,540.551,786.862,552.084,860.302,392.887C933.68,233.824,790.033,59.1,727.791,-104.641C678.544,-234.198,602.686,-342.57,534.804,-463.41C446.917,-619.86,434.281,-847.343,270.007,-919.558C108.364,-990.616,-83.857,-892.491,-235.499,-802.034C-367.64,-723.21,-407.84,-556.198,-518.443,-449.233C-644.752,-327.078,-891.839,-305.444,-926.995,-133.282C-961.616,36.257,-744.599,149.818,-672.935,307.319C-601.125,465.141,-647.148,686.857,-507.23,789.265C-367.943,891.211,-169.499,832.466,0,799.846" fill="#d5d5d5"></path><path d="M1920 1871.971C2070.725 1852.704 2215.564 1820.262 2348.882 1747.354 2490.167 1670.089 2649.318 1589.897 2709.1639999999998 1440.399 2768.506 1292.161 2681.199 1131.873 2658.54 973.814 2635.869 815.6759999999999 2656.006 649.848 2576.006 511.567 2487.283 358.20899999999995 2365.874 177.60199999999998 2189.323 162.769 2007.974 147.53300000000002 1894.016 357.24800000000005 1732.279 440.67999999999995 1609.908 503.80499999999995 1466.15 508.231 1356.975 592.136 1230.357 689.447 1069.748 797.0509999999999 1061.095 956.508 1052.362 1117.4279999999999 1257.2179999999998 1205.816 1315.52 1356.057 1379.5520000000001 1521.065 1279.716 1751.914 1414.344 1866.817 1545.2069999999999 1978.5059999999999 1749.344 1893.786 1920 1871.971" fill="#ffffff"></path></g><defs><mask id="SvgjsMask1071"><rect width="1920" height="1080" fill="#ffffff"></rect></mask></defs></svg>