<svg xmlns="http://www.w3.org/2000/svg" version="1.1" xmlns:xlink="http://www.w3.org/1999/xlink" xmlns:svgjs="http://svgjs.com/svgjs" width="1920" height="1080" preserveAspectRatio="none" viewBox="0 0 1920 1080"><g mask="url(&quot;#SvgjsMask1030&quot;)" fill="none"><rect width="1920" height="1080" x="0" y="0" fill="rgba(34, 34, 34, 1)"></rect><path d="M0,743.991C163.176,785.446,357.342,867.048,494.213,769.011C632.34,670.075,570.037,446.956,634.287,289.669C694.782,141.575,882.206,34.775,858.784,-123.474C835.349,-281.814,650.272,-355.603,524.188,-454.212C420.812,-535.062,317.038,-614.213,189.867,-646.629C65.708,-678.277,-59.039,-647.791,-186.566,-635.385C-345.899,-619.885,-524.241,-661.531,-651.763,-564.756C-784.023,-464.385,-860.6,-289.789,-860.744,-123.756C-860.882,36.27,-748.231,169.751,-652.509,297.991C-572.82,404.751,-465.469,477.969,-355.484,553.145C-242.156,630.607,-133.046,710.191,0,743.991" fill="#1b1b1b"></path><path d="M1920 1826.8780000000002C2075.905 1862.604 2242.261 1872.7440000000001 2389.854 1811.107 2551.173 1743.737 2730.705 1639.435 2774.255 1470.125 2818.111 1299.626 2662.494 1147.528 2603.175 981.774 2557.44 853.977 2529.69 726.923 2465.487 607.3330000000001 2384.648 456.755 2340.618 252.79600000000005 2180.188 193.88099999999997 2020.7 135.312 1844.835 239.32899999999995 1698.511 325.677 1573.966 399.173 1520.577 543.215 1417.0720000000001 644.21 1300.481 757.973 1100.99 799.649 1053.17 955.369 1005.253 1111.403 1079.404 1289.203 1179.376 1418.232 1271.461 1537.0819999999999 1439.13 1550.778 1570.771 1623.412 1691.171 1689.844 1785.963 1796.163 1920 1826.8780000000002" fill="#292929"></path></g><defs><mask id="SvgjsMask1030"><rect width="1920" height="1080" fill="#ffffff"></rect></mask></defs></svg>